<?xml version="1.0" encoding="UTF-8" standalone="no"?>
<svg
   xmlns:svg="http://www.w3.org/2000/svg"
   xmlns="http://www.w3.org/2000/svg"
   xmlns:sodipodi="http://sodipodi.sourceforge.net/DTD/sodipodi-0.dtd"
   xmlns:inkscape="http://www.inkscape.org/namespaces/inkscape"
   width="45"
   height="45"
   viewBox="0 0 11.90625 11.90625"
   version="1.1"
   id="svg6"
   inkscape:version="1.1-dev (ee0c38c, 2020-05-22)"
   sodipodi:docname="logo-header.svg">
  <defs
     id="defs2" />
  <sodipodi:namedview
     width="45px"
     id="base"
     pagecolor="#ffffff"
     bordercolor="#666666"
     borderopacity="1.0"
     inkscape:pageopacity="0.0"
     inkscape:pageshadow="2"
     inkscape:zoom="11.2"
     inkscape:cx="11.653134"
     inkscape:cy="17.083976"
     inkscape:document-units="mm"
     inkscape:current-layer="layer1"
     showgrid="false"
     inkscape:window-width="1920"
     inkscape:window-height="1013"
     inkscape:window-x="-9"
     inkscape:window-y="-9"
     inkscape:window-maximized="1"
     units="px" />
  <g
     inkscape:label="Capa 1"
     inkscape:groupmode="layer"
     id="layer1">
    <path
       style="fill:#ff0000;fill-opacity:1;stroke:#ff0000;stroke-width:7.66704;stroke-linejoin:round;stroke-miterlimit:4;stroke-dasharray:none;stroke-opacity:1"
       d=""
       id="path930"
       transform="scale(0.26458333)" />
    <path
       style="fill:#ff0000;fill-opacity:1;stroke:#ff0000;stroke-width:7.66704;stroke-linejoin:round;stroke-miterlimit:4;stroke-dasharray:none;stroke-opacity:1"
       d=""
       id="path932"
       transform="scale(0.26458333)" />
    <g
       id="g982"
       transform="matrix(0.06145708,0,0,0.05921756,-32.607134,-2.3415839)">
      <ellipse
         ry="96.51973"
         rx="92.837151"
         cy="140.07178"
         cx="627.43396"
         id="path849"
         style="fill:#005100;fill-opacity:1;stroke:#005100;stroke-width:8.05284;stroke-linejoin:round;stroke-opacity:1" />
      <path
         id="path869"
         d="m 689.62612,169.97975 c -0.41879,-0.12253 -0.0554,-0.4681 1.6795,-1.59716 2.95335,-1.92202 5.30591,-3.87956 6.27654,-5.22265 0.62198,-0.86066 0.81191,-1.49124 0.87179,-2.89434 0.24659,-5.77798 -5.97334,-27.03654 -11.2873,-38.57785 -2.84373,-6.17627 -4.6687,-8.42611 -6.8935,-8.49832 -1.63982,-0.0532 -9.20795,1.99877 -16.07895,4.35961 -3.45351,1.1866 -4.44931,1.14564 -5.45372,-0.22434 -1.46045,-1.992 -1.46593,-4.37463 -0.0133,-5.79093 1.51418,-1.47635 6.9225,-3.15886 14.68695,-4.56905 5.43986,-0.98812 8.77902,-1.22938 10.0836,-0.72891 3.6832,1.41297 8.21982,7.41206 10.37953,13.72553 3.10838,9.08675 6.53701,23.00653 7.61648,30.9219 1.65658,12.14707 -0.47942,16.49938 -9.18082,18.70683 -1.18379,0.30031 -2.39284,0.47566 -2.68677,0.38968 z"
         style="fill:#ffffff;fill-opacity:1;stroke:#ffffff;stroke-width:0.771298;stroke-linejoin:round;stroke-miterlimit:4;stroke-dasharray:none;stroke-opacity:1"
         sodipodi:nodetypes="ssssssssscssssss" />
      <path
         id="path871"
         d="m 621.50595,235.98726 c -1.68172,-0.61549 -4.69799,-2.73608 -4.78349,-3.36302 -0.0671,-0.49211 2.39459,-1.54506 11.14059,-4.76519 21.22493,-7.81465 39.95687,-17.02611 55.25186,-27.17018 6.02876,-3.99844 5.87948,-3.96758 5.92517,-1.22489 0.0519,3.11575 -1.54453,5.21919 -6.54705,8.62627 -10.26989,6.99457 -29.51108,16.61034 -48.59326,24.28447 -11.56416,4.65066 -10.44704,4.32504 -12.39382,3.61254 z"
         style="fill:#ffffff;fill-opacity:1;stroke:#ffffff;stroke-width:0.771298;stroke-linejoin:round;stroke-miterlimit:4;stroke-dasharray:none;stroke-opacity:1"
         sodipodi:nodetypes="ssssssss" />
      <text
         transform="matrix(0.92422595,-0.38373184,0.3118719,0.95249957,0,0)"
         id="text875"
         y="380.87149"
         x="550.6745"
         style="font-style:normal;font-variant:normal;font-weight:normal;font-stretch:normal;font-size:36.3734px;line-height:26.4583px;font-family:'Franklin Gothic Heavy';-inkscape-font-specification:'Franklin Gothic Heavy, ';letter-spacing:0px;word-spacing:0px;fill:#ffffff;fill-opacity:1;stroke:#ffffff;stroke-width:0.5456"
         xml:space="preserve"><tspan
           y="380.87149"
           x="550.6745"
           style="font-style:normal;font-variant:normal;font-weight:normal;font-stretch:normal;font-size:36.3734px;font-family:'Waltograph UI';-inkscape-font-specification:'Waltograph UI';text-align:center;text-anchor:middle;fill:#ffffff;stroke:#ffffff;stroke-width:0.5456"
           id="tspan873"
           sodipodi:role="line">BAR</tspan><tspan
           id="tspan877"
           y="408.60251"
           x="550.6745"
           style="font-style:normal;font-variant:normal;font-weight:normal;font-stretch:normal;font-size:25.0947px;font-family:'Waltograph UI';-inkscape-font-specification:'Waltograph UI';text-align:center;text-anchor:middle;fill:#ffffff;stroke:#ffffff;stroke-width:0.5456"
           sodipodi:role="line">AN-CA</tspan><tspan
           id="tspan879"
           y="439.17151"
           x="550.6745"
           style="font-style:normal;font-variant:normal;font-weight:normal;font-stretch:normal;font-size:36.3734px;font-family:'Waltograph UI';-inkscape-font-specification:'Waltograph UI';text-align:center;text-anchor:middle;fill:#ffffff;stroke:#ffffff;stroke-width:0.5456"
           sodipodi:role="line">RAUL</tspan></text>
      <g
         style="fill:#ffffff;stroke:#ffffff"
         transform="matrix(0.66554451,-0.238204,0.238204,0.66554451,393.8979,242.96579)"
         id="g945">
        <path
           style="fill:#ffffff;fill-opacity:1;stroke:#ffffff;stroke-width:7.66704;stroke-linejoin:round;stroke-miterlimit:4;stroke-dasharray:none;stroke-opacity:1"
           d="m 1514.9692,-206.59723 c 0,-13.30114 -6.8684,-27.80349 -16.0024,-33.78829 -6.6787,-4.37608 -15.6269,-5.35 -57.5579,-6.26442 -76.5233,-1.66886 -110.7814,2.42537 -224.5486,26.83597 -24.7442,5.30928 -30.7988,3.54905 -24.2685,-7.05552 6.0297,-9.79183 39.2207,-24.67228 72.8727,-32.67097 45.5339,-10.82286 92.1566,-16.13983 158.7904,-18.10886 32.6071,-0.96351 59.2857,-2.72951 59.2857,-3.92439 0,-8.47382 -114.386,-14.32733 -170,-8.69947 -17.2857,1.74923 -52.85,8.50828 -79.0316,15.02009 -26.1817,6.51183 -49.5486,11.09315 -51.9264,10.18069 -2.3779,-0.91246 -7.1806,-9.49526 -10.6728,-19.07292 -12.3646,-33.9112 -30.1752,-39.16831 -72.8501,-21.503 -24.9535,10.32955 -40.4257,12.52193 -46.3762,6.57143 -5.7283,-5.72831 -4.0694,-20.68762 3.0342,-27.36114 7.5596,-7.10188 34.8851,-14.83839 53.4232,-15.12539 7.1341,-0.11045 15.4409,-1.16864 18.4594,-2.35153 4.6638,-1.82762 3.798,-2.82708 -5.7637,-6.6529 -21.4897,-8.59849 -36.5026,-11.25453 -77.3155,-13.67851 -34.2858,-2.03631 -43.5766,-3.60015 -56.47756,-9.50642 -26.02947,-11.91669 -27.97692,-26.57049 -4.93391,-37.12582 10.78009,-4.93804 18.68077,-6.07555 41.85957,-6.02678 46.6644,0.0982 86.6649,14.33612 131.4286,46.78106 40.694,29.49532 68.8405,40.72679 103.4644,41.28602 24.5976,0.39729 32.674,-4.4785 27.2257,-16.4363 -3.2682,-7.17286 -9.0652,-12.18495 -40.0454,-34.62324 -18.889,-13.68091 -29.1877,-27.0932 -29.2055,-38.03522 -0.033,-20.43101 20.489,-33.3227 42.5327,-26.71826 12.1339,3.63541 22.2961,13.92224 44.0852,44.62584 15.9054,22.41269 20.977,21.93172 14.7056,-1.39463 -9.0186,-33.54423 -10.4686,-51.89358 -5.851,-74.03988 7.3216,-35.11456 26.4757,-61.39346 56.3566,-77.31984 30.2607,-16.1288 67.275,-14.8241 76.6547,2.70198 3.5615,6.65471 2.3887,7.44514 -14.7263,9.92535 -15.0093,2.17504 -27.216,12.43708 -35.5795,29.9111 -6.4188,13.41104 -8.4263,51.25088 -4.0517,76.3717 6.1089,35.07968 18.1304,55.52408 35.1295,59.74308 11.5915,2.87686 25.9293,-12.47177 32.3007,-34.57778 5.5282,-19.18048 18.1305,-45.51538 30.2069,-63.12306 10.0491,-14.65184 29.9444,-23.70158 41.0161,-18.65696 9.6884,4.41432 16.7002,16.01129 14.2839,23.62441 -1.0842,3.41602 -15.4705,19.69377 -31.9695,36.17277 -37.0129,36.96808 -44.8065,51.47434 -44.9852,83.73112 -0.1309,23.6395 5.4597,37.02209 15.4662,37.02209 6.9255,0 12.0802,-7.41425 35.7555,-51.42857 22.6599,-42.1267 42.2929,-69.52341 62.471,-87.17469 31.1192,-27.22239 75.3105,-42.93854 101.058,-35.94021 14.8153,4.02688 28.9367,15.5565 34.054,27.80382 4.0872,9.78215 2.6235,24.82606 -2.8398,29.18802 -1.7749,1.41709 -20.1325,3.15982 -40.7945,3.87275 -33.5328,1.15701 -39.2095,2.1163 -52.8572,8.93215 -15.9083,7.94484 -42.1227,28.86616 -39.4802,31.5086 0.8347,0.83477 6.8821,0.15615 13.4385,-1.50804 12.615,-3.20202 32.38,-0.36889 33.111,4.74617 0.2246,1.57143 -7.9286,6.96949 -18.1182,11.9957 -37.1121,18.30624 -58.28,51.96273 -76.5792,121.75913 -11.2859,43.04674 -17.6616,57.33546 -17.6616,39.58197 z"
           id="path920"
           transform="scale(0.26458333)" />
        <path
           style="fill:#ffffff;fill-opacity:1;stroke:#ffffff;stroke-width:7.66704;stroke-linejoin:round;stroke-miterlimit:4;stroke-dasharray:none;stroke-opacity:1"
           d="m 1167.3661,-390.58315 c -6.0326,-5.31563 -19.5616,-15.70535 -30.0644,-23.08827 -18.2753,-12.84657 -24.7701,-21.43565 -20.9197,-27.66561 8.0031,-12.94942 50.7102,21.74141 61.4095,49.88287 4.408,11.59391 1.9746,11.79722 -10.4254,0.87101 z"
           id="path922"
           transform="scale(0.26458333)" />
        <path
           style="fill:#ffffff;fill-opacity:1;stroke:#ffffff;stroke-width:7.66704;stroke-linejoin:round;stroke-miterlimit:4;stroke-dasharray:none;stroke-opacity:1"
           d="m 999.73109,-320.41022 c -7.14496,-7.14496 9.93011,-20.92327 25.95241,-20.9417 13.2569,-0.0152 11.8999,6.78781 -3.1082,15.58317 -12.4431,7.29216 -19.3018,8.90098 -22.84421,5.35853 z"
           id="path924"
           transform="scale(0.26458333)" />
        <path
           style="fill:#ffffff;fill-opacity:1;stroke:#ffffff;stroke-width:7.66704;stroke-linejoin:round;stroke-miterlimit:4;stroke-dasharray:none;stroke-opacity:1"
           d="m 1413.4954,-417.07689 c -7.9199,-24.67142 -7.7303,-67.21013 0.3694,-82.85714 6.4228,-12.40774 15.0053,-15.9204 21.0633,-8.62088 3.135,3.77743 2.4294,8.79977 -4.3342,30.84874 -4.8734,15.88692 -8.7766,36.54094 -9.8372,52.05444 l -1.7581,25.7177 z"
           id="path926"
           transform="scale(0.26458333)" />
        <path
           style="fill:#ffffff;fill-opacity:1;stroke:#ffffff;stroke-width:7.66704;stroke-linejoin:round;stroke-miterlimit:4;stroke-dasharray:none;stroke-opacity:1"
           d="m 1283.6411,-449.7462 c -4.1505,-7.75537 -3.6797,-13.58509 1.2499,-15.47676 6.2302,-2.39076 13.4037,9.07507 9.8418,15.73066 -3.6274,6.77778 -7.3743,6.69201 -11.0917,-0.2539 z"
           id="path928"
           transform="scale(0.26458333)" />
        <path
           style="fill:#ffffff;fill-opacity:1;stroke:#ffffff;stroke-width:7.66704;stroke-linejoin:round;stroke-miterlimit:4;stroke-dasharray:none;stroke-opacity:1"
           d="m 1647.5584,-393.22461 c -2.3193,-3.75275 6.2752,-11.01702 12.9569,-10.95138 7.3349,0.072 12.5455,4.79136 10.6742,9.66789 -2.0682,5.38954 -20.4755,6.38931 -23.6311,1.28349 z"
           id="path934"
           transform="scale(0.26458333)" />
        <path
           style="fill:#ffffff;fill-opacity:1;stroke:#ffffff;stroke-width:7.66704;stroke-linejoin:round;stroke-miterlimit:4;stroke-dasharray:none;stroke-opacity:1"
           d="m 1556.7549,-489.35616 c -0.7748,-1.2536 -0.3058,-4.06378 1.0422,-6.24485 2.0269,-3.27953 3.23,-3.31898 6.9543,-0.22803 2.4769,2.05565 4.5035,4.86584 4.5035,6.24485 0,3.13242 -10.5856,3.32553 -12.5,0.22803 z"
           id="path936"
           transform="scale(0.26458333)" />
      </g>
    </g>
  </g>
</svg>
