<?xml version="1.0" encoding="UTF-8" standalone="no"?>
<svg
   xmlns:svg="http://www.w3.org/2000/svg"
   xmlns="http://www.w3.org/2000/svg"
   xmlns:sodipodi="http://sodipodi.sourceforge.net/DTD/sodipodi-0.dtd"
   xmlns:inkscape="http://www.inkscape.org/namespaces/inkscape"
   inkscape:export-ydpi="1093.13"
   inkscape:export-xdpi="1093.13"
   inkscape:export-filename="D:\Programacion\www\barancaraul\src\assets\icons\icon-512x512.png"
   sodipodi:docname="logo-ban_an_ca_raul.svg"
   inkscape:version="1.1-dev (ee0c38c, 2020-05-22)"
   id="svg6"
   version="1.1"
   viewBox="0 0 11.90625 11.90625"
   height="45"
   width="45">
  <defs
     id="defs2" />
  <sodipodi:namedview
     units="px"
     inkscape:window-maximized="1"
     inkscape:window-y="-9"
     inkscape:window-x="-9"
     inkscape:window-height="1013"
     inkscape:window-width="1920"
     showgrid="false"
     inkscape:current-layer="layer1"
     inkscape:document-units="mm"
     inkscape:cy="2.0091702"
     inkscape:cx="-7.4999999"
     inkscape:zoom="5.6"
     inkscape:pageshadow="2"
     inkscape:pageopacity="0.0"
     borderopacity="1.0"
     bordercolor="#666666"
     pagecolor="#ffffff"
     id="base"
     width="45px" />
  <g
     id="layer1"
     inkscape:groupmode="layer"
     inkscape:label="Capa 1">
    <path
       transform="scale(0.26458333)"
       id="path930"
       d=""
       style="fill:#ff0000;fill-opacity:1;stroke:#ff0000;stroke-width:7.66704;stroke-linejoin:round;stroke-miterlimit:4;stroke-dasharray:none;stroke-opacity:1" />
    <path
       transform="scale(0.26458333)"
       id="path932"
       d=""
       style="fill:#ff0000;fill-opacity:1;stroke:#ff0000;stroke-width:7.66704;stroke-linejoin:round;stroke-miterlimit:4;stroke-dasharray:none;stroke-opacity:1" />
    <ellipse
       ry="5.715663"
       rx="5.7055001"
       cy="5.953125"
       cx="5.953125"
       id="path849"
       style="fill:#005100;fill-opacity:1;stroke:#005100;stroke-width:0.485803;stroke-linejoin:round;stroke-opacity:1" />
    <g
       transform="matrix(0.83414006,0,0,0.83414006,0.78983458,0.79619542)"
       id="g868">
      <path
         sodipodi:nodetypes="ssssssssscssssss"
         style="fill:#ffffff;fill-opacity:1;stroke:#ffffff;stroke-width:0.04653;stroke-linejoin:round;stroke-miterlimit:4;stroke-dasharray:none;stroke-opacity:1"
         d="m 9.7752736,7.7242021 c -0.025738,-0.00726 -0.0034,-0.02772 0.1032172,-0.09458 0.1815042,-0.1138173 0.3260862,-0.2297381 0.3857382,-0.3092726 0.03822,-0.050966 0.0499,-0.088308 0.05358,-0.1713957 C 10.332961,6.806796 9.9507022,5.547916 9.6241218,4.8644677 9.4493544,4.4987241 9.3371971,4.3654941 9.2004674,4.361218 9.0996889,4.3580676 8.6345737,4.4795802 8.2123021,4.6193834 8.0000594,4.689651 7.9388605,4.6872254 7.8771324,4.6060986 7.7873774,4.4881372 7.7870406,4.3470436 7.876315,4.2631738 7.9693721,4.175748 8.3017516,4.0761138 8.7789321,3.9926058 9.11325,3.9340918 9.318465,3.9198049 9.3986407,3.9494416 c 0.2263587,0.083673 0.5051661,0.4389241 0.6378953,0.8127923 0.191032,0.5380952 0.401746,1.3623906 0.468087,1.8311195 0.101808,0.7193199 -0.02946,0.977053 -0.5642265,1.1077728 -0.072752,0.017784 -0.1470569,0.028168 -0.165121,0.023076 z"
         id="path869" />
      <path
         sodipodi:nodetypes="ssssssss"
         style="fill:#ffffff;fill-opacity:1;stroke:#ffffff;stroke-width:0.04653;stroke-linejoin:round;stroke-miterlimit:4;stroke-dasharray:none;stroke-opacity:1"
         d="m 5.5888069,11.633006 c -0.1033536,-0.03645 -0.2887248,-0.162024 -0.2939793,-0.19915 -0.00412,-0.02914 0.1471645,-0.0915 0.6846681,-0.282183 1.3044222,-0.462764 2.4556325,-1.008245 3.395618,-1.6089517 0.37051,-0.2367779 0.3613356,-0.2349504 0.3641436,-0.072535 0.00319,0.1845071 -0.094922,0.3090677 -0.4023626,0.5108267 -0.6311574,0.414201 -1.8136648,0.983624 -2.9863998,1.438067 -0.7106995,0.275401 -0.6420446,0.256118 -0.761688,0.213926 z"
         id="path871" />
      <text
         xml:space="preserve"
         style="font-style:normal;font-variant:normal;font-weight:normal;font-stretch:normal;font-size:2.1943px;line-height:1.59615px;font-family:'Franklin Gothic Heavy';-inkscape-font-specification:'Franklin Gothic Heavy, ';letter-spacing:0px;word-spacing:0px;fill:#ffffff;fill-opacity:1;stroke:#ffffff;stroke-width:0.0329144"
         x="3.4773157"
         y="8.4898129"
         id="text875"
         transform="matrix(0.94154021,-0.37667523,0.3177145,0.93498377,0,0)"><tspan
           sodipodi:role="line"
           id="tspan873"
           style="font-style:normal;font-variant:normal;font-weight:normal;font-stretch:normal;font-size:2.1943px;font-family:'Waltograph UI';-inkscape-font-specification:'Waltograph UI';text-align:center;text-anchor:middle;fill:#ffffff;stroke:#ffffff;stroke-width:0.0329144"
           x="3.4773157"
           y="8.4898129">BAR</tspan><tspan
           sodipodi:role="line"
           style="font-style:normal;font-variant:normal;font-weight:normal;font-stretch:normal;font-size:1.51389px;font-family:'Waltograph UI';-inkscape-font-specification:'Waltograph UI';text-align:center;text-anchor:middle;fill:#ffffff;stroke:#ffffff;stroke-width:0.0329144"
           x="3.4773157"
           y="10.162742"
           id="tspan877">AN-CA</tspan><tspan
           sodipodi:role="line"
           style="font-style:normal;font-variant:normal;font-weight:normal;font-stretch:normal;font-size:2.1943px;font-family:'Waltograph UI';-inkscape-font-specification:'Waltograph UI';text-align:center;text-anchor:middle;fill:#ffffff;stroke:#ffffff;stroke-width:0.0329144"
           x="3.4773157"
           y="12.006879"
           id="tspan879">RAUL</tspan></text>
      <g
         id="g945"
         transform="matrix(0.04090242,-0.01410586,0.01463932,0.03941192,-8.3993192,12.046257)"
         style="fill:#ffffff;stroke:#ffffff">
        <path
           transform="scale(0.26458333)"
           id="path920"
           d="m 1514.9692,-206.59723 c 0,-13.30114 -6.8684,-27.80349 -16.0024,-33.78829 -6.6787,-4.37608 -15.6269,-5.35 -57.5579,-6.26442 -76.5233,-1.66886 -110.7814,2.42537 -224.5486,26.83597 -24.7442,5.30928 -30.7988,3.54905 -24.2685,-7.05552 6.0297,-9.79183 39.2207,-24.67228 72.8727,-32.67097 45.5339,-10.82286 92.1566,-16.13983 158.7904,-18.10886 32.6071,-0.96351 59.2857,-2.72951 59.2857,-3.92439 0,-8.47382 -114.386,-14.32733 -170,-8.69947 -17.2857,1.74923 -52.85,8.50828 -79.0316,15.02009 -26.1817,6.51183 -49.5486,11.09315 -51.9264,10.18069 -2.3779,-0.91246 -7.1806,-9.49526 -10.6728,-19.07292 -12.3646,-33.9112 -30.1752,-39.16831 -72.8501,-21.503 -24.9535,10.32955 -40.4257,12.52193 -46.3762,6.57143 -5.7283,-5.72831 -4.0694,-20.68762 3.0342,-27.36114 7.5596,-7.10188 34.8851,-14.83839 53.4232,-15.12539 7.1341,-0.11045 15.4409,-1.16864 18.4594,-2.35153 4.6638,-1.82762 3.798,-2.82708 -5.7637,-6.6529 -21.4897,-8.59849 -36.5026,-11.25453 -77.3155,-13.67851 -34.2858,-2.03631 -43.5766,-3.60015 -56.47756,-9.50642 -26.02947,-11.91669 -27.97692,-26.57049 -4.93391,-37.12582 10.78009,-4.93804 18.68077,-6.07555 41.85957,-6.02678 46.6644,0.0982 86.6649,14.33612 131.4286,46.78106 40.694,29.49532 68.8405,40.72679 103.4644,41.28602 24.5976,0.39729 32.674,-4.4785 27.2257,-16.4363 -3.2682,-7.17286 -9.0652,-12.18495 -40.0454,-34.62324 -18.889,-13.68091 -29.1877,-27.0932 -29.2055,-38.03522 -0.033,-20.43101 20.489,-33.3227 42.5327,-26.71826 12.1339,3.63541 22.2961,13.92224 44.0852,44.62584 15.9054,22.41269 20.977,21.93172 14.7056,-1.39463 -9.0186,-33.54423 -10.4686,-51.89358 -5.851,-74.03988 7.3216,-35.11456 26.4757,-61.39346 56.3566,-77.31984 30.2607,-16.1288 67.275,-14.8241 76.6547,2.70198 3.5615,6.65471 2.3887,7.44514 -14.7263,9.92535 -15.0093,2.17504 -27.216,12.43708 -35.5795,29.9111 -6.4188,13.41104 -8.4263,51.25088 -4.0517,76.3717 6.1089,35.07968 18.1304,55.52408 35.1295,59.74308 11.5915,2.87686 25.9293,-12.47177 32.3007,-34.57778 5.5282,-19.18048 18.1305,-45.51538 30.2069,-63.12306 10.0491,-14.65184 29.9444,-23.70158 41.0161,-18.65696 9.6884,4.41432 16.7002,16.01129 14.2839,23.62441 -1.0842,3.41602 -15.4705,19.69377 -31.9695,36.17277 -37.0129,36.96808 -44.8065,51.47434 -44.9852,83.73112 -0.1309,23.6395 5.4597,37.02209 15.4662,37.02209 6.9255,0 12.0802,-7.41425 35.7555,-51.42857 22.6599,-42.1267 42.2929,-69.52341 62.471,-87.17469 31.1192,-27.22239 75.3105,-42.93854 101.058,-35.94021 14.8153,4.02688 28.9367,15.5565 34.054,27.80382 4.0872,9.78215 2.6235,24.82606 -2.8398,29.18802 -1.7749,1.41709 -20.1325,3.15982 -40.7945,3.87275 -33.5328,1.15701 -39.2095,2.1163 -52.8572,8.93215 -15.9083,7.94484 -42.1227,28.86616 -39.4802,31.5086 0.8347,0.83477 6.8821,0.15615 13.4385,-1.50804 12.615,-3.20202 32.38,-0.36889 33.111,4.74617 0.2246,1.57143 -7.9286,6.96949 -18.1182,11.9957 -37.1121,18.30624 -58.28,51.96273 -76.5792,121.75913 -11.2859,43.04674 -17.6616,57.33546 -17.6616,39.58197 z"
           style="fill:#ffffff;fill-opacity:1;stroke:#ffffff;stroke-width:7.66704;stroke-linejoin:round;stroke-miterlimit:4;stroke-dasharray:none;stroke-opacity:1" />
        <path
           transform="scale(0.26458333)"
           id="path922"
           d="m 1167.3661,-390.58315 c -6.0326,-5.31563 -19.5616,-15.70535 -30.0644,-23.08827 -18.2753,-12.84657 -24.7701,-21.43565 -20.9197,-27.66561 8.0031,-12.94942 50.7102,21.74141 61.4095,49.88287 4.408,11.59391 1.9746,11.79722 -10.4254,0.87101 z"
           style="fill:#ffffff;fill-opacity:1;stroke:#ffffff;stroke-width:7.66704;stroke-linejoin:round;stroke-miterlimit:4;stroke-dasharray:none;stroke-opacity:1" />
        <path
           transform="scale(0.26458333)"
           id="path924"
           d="m 999.73109,-320.41022 c -7.14496,-7.14496 9.93011,-20.92327 25.95241,-20.9417 13.2569,-0.0152 11.8999,6.78781 -3.1082,15.58317 -12.4431,7.29216 -19.3018,8.90098 -22.84421,5.35853 z"
           style="fill:#ffffff;fill-opacity:1;stroke:#ffffff;stroke-width:7.66704;stroke-linejoin:round;stroke-miterlimit:4;stroke-dasharray:none;stroke-opacity:1" />
        <path
           transform="scale(0.26458333)"
           id="path926"
           d="m 1413.4954,-417.07689 c -7.9199,-24.67142 -7.7303,-67.21013 0.3694,-82.85714 6.4228,-12.40774 15.0053,-15.9204 21.0633,-8.62088 3.135,3.77743 2.4294,8.79977 -4.3342,30.84874 -4.8734,15.88692 -8.7766,36.54094 -9.8372,52.05444 l -1.7581,25.7177 z"
           style="fill:#ffffff;fill-opacity:1;stroke:#ffffff;stroke-width:7.66704;stroke-linejoin:round;stroke-miterlimit:4;stroke-dasharray:none;stroke-opacity:1" />
        <path
           transform="scale(0.26458333)"
           id="path928"
           d="m 1283.6411,-449.7462 c -4.1505,-7.75537 -3.6797,-13.58509 1.2499,-15.47676 6.2302,-2.39076 13.4037,9.07507 9.8418,15.73066 -3.6274,6.77778 -7.3743,6.69201 -11.0917,-0.2539 z"
           style="fill:#ffffff;fill-opacity:1;stroke:#ffffff;stroke-width:7.66704;stroke-linejoin:round;stroke-miterlimit:4;stroke-dasharray:none;stroke-opacity:1" />
        <path
           transform="scale(0.26458333)"
           id="path934"
           d="m 1647.5584,-393.22461 c -2.3193,-3.75275 6.2752,-11.01702 12.9569,-10.95138 7.3349,0.072 12.5455,4.79136 10.6742,9.66789 -2.0682,5.38954 -20.4755,6.38931 -23.6311,1.28349 z"
           style="fill:#ffffff;fill-opacity:1;stroke:#ffffff;stroke-width:7.66704;stroke-linejoin:round;stroke-miterlimit:4;stroke-dasharray:none;stroke-opacity:1" />
        <path
           transform="scale(0.26458333)"
           id="path936"
           d="m 1556.7549,-489.35616 c -0.7748,-1.2536 -0.3058,-4.06378 1.0422,-6.24485 2.0269,-3.27953 3.23,-3.31898 6.9543,-0.22803 2.4769,2.05565 4.5035,4.86584 4.5035,6.24485 0,3.13242 -10.5856,3.32553 -12.5,0.22803 z"
           style="fill:#ffffff;fill-opacity:1;stroke:#ffffff;stroke-width:7.66704;stroke-linejoin:round;stroke-miterlimit:4;stroke-dasharray:none;stroke-opacity:1" />
      </g>
    </g>
  </g>
</svg>
