<?xml version="1.0" encoding="UTF-8" standalone="no"?>
<svg
   xmlns:svg="http://www.w3.org/2000/svg"
   xmlns="http://www.w3.org/2000/svg"
   xmlns:sodipodi="http://sodipodi.sourceforge.net/DTD/sodipodi-0.dtd"
   xmlns:inkscape="http://www.inkscape.org/namespaces/inkscape"
   inkscape:export-ydpi="136.53999"
   inkscape:export-xdpi="136.53999"
   inkscape:export-filename="D:\Programacion\www\barancaraul\src\assets\icon\favicon.png"
   sodipodi:docname="logo.svg"
   inkscape:version="1.1-dev (ee0c38c, 2020-05-22)"
   id="svg6"
   version="1.1"
   viewBox="0 0 11.90625 11.90625"
   height="45"
   width="45">
  <defs
     id="defs2" />
  <sodipodi:namedview
     units="px"
     inkscape:window-maximized="1"
     inkscape:window-y="-9"
     inkscape:window-x="-9"
     inkscape:window-height="1013"
     inkscape:window-width="1920"
     showgrid="false"
     inkscape:current-layer="g982"
     inkscape:document-units="mm"
     inkscape:cy="15.898434"
     inkscape:cx="22.776818"
     inkscape:zoom="7.919596"
     inkscape:pageshadow="2"
     inkscape:pageopacity="0.0"
     borderopacity="1.0"
     bordercolor="#666666"
     pagecolor="#ffffff"
     id="base"
     width="45px" />
  <g
     id="layer1"
     inkscape:groupmode="layer"
     inkscape:label="Capa 1">
    <path
       transform="scale(0.26458333)"
       id="path930"
       d=""
       style="fill:#ff0000;fill-opacity:1;stroke:#ff0000;stroke-width:7.66704;stroke-linejoin:round;stroke-miterlimit:4;stroke-dasharray:none;stroke-opacity:1" />
    <path
       transform="scale(0.26458333)"
       id="path932"
       d=""
       style="fill:#ff0000;fill-opacity:1;stroke:#ff0000;stroke-width:7.66704;stroke-linejoin:round;stroke-miterlimit:4;stroke-dasharray:none;stroke-opacity:1" />
    <g
       transform="matrix(0.06145708,0,0,0.05921756,-32.607134,-2.3415839)"
       id="g982">
      <ellipse
         style="fill:#006600;fill-opacity:1;stroke:#006600;stroke-width:8.05284;stroke-linejoin:round;stroke-opacity:1"
         id="path849"
         cx="627.43396"
         cy="140.07178"
         rx="92.837151"
         ry="96.51973" />
      <path
         id="path4"
         d="m 684.11936,118.31398 h -8.57988 v -2.12963 A 22.854672,23.719002 0 0 0 658.96956,76.760278 39.681974,41.182687 0 0 0 649.10626,59.214967 38.831135,40.299671 0 0 0 621.20019,47.079075 c -10.69269,0 -20.65607,4.556064 -28.24211,12.86679 a 20.019735,20.77685 0 0 0 -24.13452,28.768516 22.847522,23.711581 0 0 0 3.75728,38.277639 v 77.39748 a 20.041183,20.799111 0 0 0 20.01973,20.77685 h 62.91916 a 20.041183,20.799111 0 0 0 20.01975,-20.77685 v -2.96812 h 8.57988 a 25.768259,26.742775 0 0 0 25.73968,-26.7131 v -29.68121 a 25.768259,26.742775 0 0 0 -25.73968,-26.71309 z m -77.21897,77.17116 a 5.7199262,5.936245 0 0 1 -11.43985,0 v -59.36243 a 5.7199262,5.936245 0 0 1 11.43985,0 z m 22.8797,0 a 5.7199262,5.936245 0 0 1 -11.43985,0 v -59.36243 a 5.7199262,5.936245 0 0 1 11.43985,0 z m 22.8797,0 a 5.719935,5.9362542 0 0 1 -11.43987,0 v -59.36243 a 5.719935,5.9362542 0 0 1 11.43987,0 z m 5.71991,-83.10741 c -2.97794,0 -7.34652,-1.92185 -9.54155,-4.19618 a 5.7199243,5.936243 0 0 0 -4.04327,-1.74006 h -43.61442 a 5.7199243,5.936243 0 0 0 -5.36243,3.90679 c -2.44168,6.93055 -8.43688,7.9657 -11.79733,7.9657 a 11.439853,11.87249 0 0 1 0,-23.744977 c 0.0322,0 3.26034,0.126153 5.86291,2.151876 a 5.7199268,5.9362458 0 1 0 6.86392,-9.497978 22.768873,23.629958 0 0 0 -12.72683,-4.526383 22.718824,23.578016 0 0 0 -5.00494,0.582492 8.5798859,8.9043652 0 0 1 7.86488,-12.454982 8.501237,8.8227413 0 0 1 6.92826,3.650796 18.357381,19.05163 0 0 1 1.68381,2.931013 5.7199243,5.936243 0 0 0 11.40768,-0.645559 c 0,-2.511773 -1.29056,-5.628302 -3.84666,-9.275384 -0.16445,-0.23374 -0.35749,-0.463766 -0.51836,-0.690084 5.21944,-5.082914 11.74372,-7.843267 18.66482,-7.843267 a 27.477085,28.516227 0 0 1 19.74447,8.600129 28.67112,29.755418 0 0 1 7.64325,26.275312 5.7199243,5.936243 0 0 0 4.55092,6.941686 5.8235979,6.0438378 0 0 0 1.07248,0.10395 5.7199243,5.936243 0 0 0 5.61268,-4.823197 39.960821,41.472079 0 0 0 0.70068,-7.205112 11.439848,11.872486 0 0 1 -2.14497,23.533479 z m 40.03947,62.33055 a 14.29981,14.840607 0 0 1 -14.29981,14.84061 h -8.57988 v -59.36242 h 8.57988 a 14.29981,14.840607 0 0 1 14.29981,14.8406 z"
         style="fill:#ffffff;stroke-width:0.364192" />
    </g>
  </g>
</svg>
